Highlights of Sachin Tendulkar's 50th Test Century scored in the 2nd Innings of the Ist Test match of the 2010-11 series between South Africa and India played at SuperSport Park, Centurion from 16-20 Dec, 2010.

Also includes all the Indian wickets (4 to 10) which fell while Sachin was at the crease. Sachin remained 111 not out.

Check out my other torrent for the 36 he scored in the Ist Innings of this match.


General

Complete name                            : Sachin Tendulkar 50th Test Century
                                           2nd  Innings 111 n.o. {apsandhu}.mp4
Format                                   : MPEG-4
Format profile                           : Base Media
Codec ID                                 : isom
File size                                : 254 MiB
Duration                                 : 25mn 18s
Overall bit rate                         : 1 401 Kbps
Encoded date                             : UTC 2011-12-18 06:59:44
Tagged date                              : UTC 2011-12-18 06:59:44

Video

ID                                       : 1
Format                                   : AVC
Format/Info                              : Advanced Video Codec
Format profile                           : High@L3.1
Format settings, CABAC                   : Yes
Format settings, ReFrames                : 4 frames
Codec ID                                 : avc1
Codec ID/Info                            : Advanced Video Coding
Duration                                 : 25mn 18s
Bit rate                                 : 1 317 Kbps
Maximum bit rate                         : 6 104 Kbps
Width                                    : 720 pixels
Height                                   : 400 pixels
Display aspect ratio                     : 16:9
Frame rate mode                          : Constant
Frame rate                               : 25.000 fps
Color space                              : YUV
Chroma subsampling                       : 4:2:0
Bit depth                                : 8 bits
Scan type                                : Progressive
Bits/(Pixel*Frame)                       : 0.183
Stream size                              : 238 MiB (94%)
Title                                    : Video
Encoded date                             : UTC 2011-06-04 08:20:08
Tagged date                              : UTC 2011-12-18 07:00:43

Audio

ID                                       : 2
Format                                   : AAC
Format/Info                              : Advanced Audio Codec
Format profile                           : HE-AAC / LC
Codec ID                                 : 40
Duration                                 : 25mn 18s
Bit rate mode                            : Variable
Bit rate                                 : 81.5 Kbps
Maximum bit rate                         : 102 Kbps
Channel(s)                               : 2 channels
Channel positions                        : Front: L R
Sampling rate                            : 44.1 KHz / 22.05 KHz
Compression mode                         : Lossy
Stream size                              : 14.7 MiB (6%)
Language                                 : English
Encoded date                             : UTC 2011-06-04 08:21:12
Tagged date                              : UTC 2011-12-18 07:00:43

